<?xml version="1.0" encoding="UTF-8" standalone="no"?>
<!-- Created with Inkscape (http://www.inkscape.org/) -->

<svg
   width="20mm"
   height="20mm"
   viewBox="0 0 20 20"
   version="1.1"
   id="svg1"
   inkscape:version="1.4.3 (0d15f75, 2025-12-25)"
   sodipodi:docname="icons.svg"
   xmlns:inkscape="http://www.inkscape.org/namespaces/inkscape"
   xmlns:sodipodi="http://sodipodi.sourceforge.net/DTD/sodipodi-0.dtd"
   xmlns="http://www.w3.org/2000/svg"
   xmlns:svg="http://www.w3.org/2000/svg">
  <sodipodi:namedview
     id="namedview1"
     pagecolor="#000000"
     bordercolor="#000000"
     borderopacity="0.25"
     inkscape:showpageshadow="2"
     inkscape:pageopacity="0.0"
     inkscape:pagecheckerboard="0"
     inkscape:deskcolor="#d1d1d1"
     inkscape:document-units="mm"
     inkscape:zoom="11.313709"
     inkscape:cx="7.7339801"
     inkscape:cy="28.991377"
     inkscape:window-width="2560"
     inkscape:window-height="1476"
     inkscape:window-x="-12"
     inkscape:window-y="-12"
     inkscape:window-maximized="1"
     inkscape:current-layer="svg1" />
  <defs
     id="defs1">
    <inkscape:path-effect
       effect="offset"
       id="path-effect11"
       is_visible="true"
       lpeversion="1.3"
       linejoin_type="miter"
       unit="mm"
       offset="0.07"
       miter_limit="4"
       attempt_force_join="false"
       update_on_knot_move="true" />
    <inkscape:path-effect
       effect="fillet_chamfer"
       id="path-effect4"
       is_visible="true"
       lpeversion="1"
       nodesatellites_param="F,0,0,1,0,0.13229166,0,1 @ F,0,0,1,0,0.13229166,0,1 @ F,0,0,1,0,0.13229166,0,1 @ F,0,0,1,0,0.13229166,0,1 @ F,0,0,1,0,0.13229166,0,1 @ F,0,0,1,0,0.13229166,0,1 @ F,0,0,1,0,0.13229166,0,1 @ F,0,0,1,0,0.13229166,0,1 @ F,0,0,1,0,0.13229166,0,1 @ F,0,0,1,0,0.13229166,0,1 @ F,0,0,1,0,0.13229166,0,1 @ F,0,0,1,0,0.13229166,0,1 @ F,0,0,1,0,0.13229166,0,1 @ F,0,0,1,0,0.13229166,0,1 @ F,0,0,1,0,0.13229166,0,1 @ F,0,0,1,0,0.13229166,0,1 @ F,0,0,1,0,0.13229166,0,1 @ F,0,0,1,0,0.13229166,0,1 @ F,0,0,1,0,0.13229166,0,1 @ F,0,0,1,0,0.13229166,0,1 @ F,0,0,1,0,0.13229166,0,1 @ F,0,0,1,0,0.13229166,0,1 @ F,0,0,1,0,0.13229166,0,1 | F,0,0,1,0,0.13229166,0,1 @ F,0,0,1,0,0.13229166,0,1 @ F,0,0,1,0,0.13229166,0,1 @ F,0,0,1,0,0.13229166,0,1 @ F,0,0,1,0,0.13229166,0,1 @ F,0,0,1,0,0.13229166,0,1 @ F,0,0,1,0,0.13229166,0,1 @ F,0,0,1,0,0.13229166,0,1 @ F,0,0,1,0,0.13229166,0,1"
       radius="0.5"
       unit="px"
       method="auto"
       mode="F"
       chamfer_steps="1"
       flexible="false"
       use_knot_distance="true"
       apply_no_radius="true"
       apply_with_radius="true"
       only_selected="false"
       hide_knots="false" />
    <inkscape:path-effect
       effect="offset"
       id="path-effect3"
       is_visible="true"
       lpeversion="1.3"
       linejoin_type="miter"
       unit="mm"
       offset="0.075"
       miter_limit="4"
       attempt_force_join="false"
       update_on_knot_move="true" />
    <inkscape:path-effect
       effect="fillet_chamfer"
       id="path-effect2"
       is_visible="true"
       lpeversion="1"
       nodesatellites_param="F,0,0,1,0,0.13229166,0,1 @ F,0,0,1,0,0.13229166,0,1 @ F,0,0,1,0,0.13229166,0,1 @ F,0,0,1,0,0.13229166,0,1 @ F,0,0,1,0,0.13229166,0,1 @ F,0,0,1,0,0.13229166,0,1 @ F,0,0,1,0,0.13229166,0,1 @ F,0,0,1,0,0.13229166,0,1 @ F,0,0,1,0,0.13229166,0,1 @ F,0,0,1,0,0.13229166,0,1 @ F,0,0,1,0,0.13229166,0,1 @ F,0,0,1,0,0.13229166,0,1 @ F,0,0,1,0,0.13229166,0,1 @ F,0,0,1,0,0.13229166,0,1 @ F,0,0,1,0,0.13229166,0,1 @ F,0,0,1,0,0.13229166,0,1 @ F,0,0,1,0,0.13229166,0,1 @ F,0,0,1,0,0.13229166,0,1 @ F,0,0,1,0,0.13229166,0,1 @ F,0,0,1,0,0.13229166,0,1 @ F,0,0,1,0,0.13229166,0,1 @ F,0,0,1,0,0.13229166,0,1 @ F,0,0,1,0,0.13229166,0,1 | F,0,0,1,0,0.13229166,0,1 @ F,0,0,1,0,0.13229166,0,1 @ F,0,0,1,0,0.13229166,0,1 @ F,0,0,1,0,0.13229166,0,1 @ F,0,0,1,0,0.13229166,0,1 @ F,0,0,1,0,0.13229166,0,1 @ F,0,0,1,0,0.13229166,0,1 @ F,0,0,1,0,0.13229166,0,1 @ F,0,0,1,0,0.13229166,0,1"
       radius="0.5"
       unit="px"
       method="auto"
       mode="F"
       chamfer_steps="1"
       flexible="false"
       use_knot_distance="true"
       apply_no_radius="true"
       apply_with_radius="true"
       only_selected="false"
       hide_knots="false" />
    <inkscape:path-effect
       effect="fillet_chamfer"
       id="path-effect1"
       is_visible="true"
       lpeversion="1"
       nodesatellites_param="F,0,0,1,0,0.13229166,0,1 @ F,0,0,1,0,0.13229166,0,1 @ F,0,0,1,0,0.13229166,0,1 @ F,0,0,1,0,0.13229166,0,1 @ F,0,0,1,0,0.13229166,0,1 @ F,0,0,1,0,0.13229166,0,1 @ F,0,0,1,0,0.13229166,0,1 @ F,0,0,1,0,0.13229166,0,1 @ F,0,0,1,0,0.13229166,0,1 @ F,0,0,1,0,0.13229166,0,1 @ F,0,0,1,0,0.13229166,0,1 @ F,0,0,1,0,0.13229166,0,1 @ F,0,0,1,0,0.13229166,0,1 @ F,0,0,1,0,0.13229166,0,1 @ F,0,0,1,0,0.13229166,0,1 @ F,0,0,1,0,0.13229166,0,1 @ F,0,0,1,0,0.13229166,0,1 @ F,0,0,1,0,0.13229166,0,1 @ F,0,0,1,0,0.13229166,0,1 @ F,0,0,1,0,0.13229166,0,1 @ F,0,0,1,0,0.13229166,0,1 @ F,0,0,1,0,0.13229166,0,1 @ F,0,0,1,0,0.13229166,0,1 | F,0,0,1,0,0.13229166,0,1 @ F,0,0,1,0,0.13229166,0,1 @ F,0,0,1,0,0.13229166,0,1 @ F,0,0,1,0,0.13229166,0,1 @ F,0,0,1,0,0.13229166,0,1 @ F,0,0,1,0,0.13229166,0,1 @ F,0,0,1,0,0.13229166,0,1 @ F,0,0,1,0,0.13229166,0,1 @ F,0,0,1,0,0.13229166,0,1"
       radius="0.5"
       unit="px"
       method="auto"
       mode="F"
       chamfer_steps="1"
       flexible="false"
       use_knot_distance="true"
       apply_no_radius="true"
       apply_with_radius="true"
       only_selected="false"
       hide_knots="false" />
  </defs>
  <g
     id="github"
     inkscape:label="github"
     transform="translate(1.4009615,1.35951)">
    <path
       fill="#08060d"
       fill-rule="evenodd"
       d="M 2.0600436,0 C 0.92075364,0 3.6362766e-6,0.92763 3.6362766e-6,2.07539 A 2.0743333,2.0743333 0 0 0 1.4086436,4.04389 c 0.10239,0.0209 0.1397,-0.0445 0.1397,-0.0995 0,-0.0482 -0.003,-0.21299 -0.003,-0.38471 C 0.97251364,3.68324 0.85319364,3.3123 0.85319364,3.3123 c -0.0923,-0.24077 -0.2286,-0.30242 -0.2286,-0.30242 -0.18786,-0.127 0.0135,-0.127 0.0135,-0.127 0.20823,0.0135 0.3175,0.21299 0.3175,0.21299 0.18388996,0.31591 0.48074996,0.22675 0.60007996,0.17171 0.0169,-0.13414 0.0714,-0.22674 0.12964,-0.27834 -0.4572,-0.0482 -0.93794996,-0.22675 -0.93794996,-1.02394 0,-0.22674 0.082,-0.41222 0.21167,-0.55668 -0.0206,-0.0516 -0.0923,-0.26458 0.0204,-0.5498 0,0 0.17383996,-0.055 0.56620996,0.21299 a 1.984375,1.984375 0 0 1 0.51488,-0.0688 c 0.17383,0 0.35137,0.0243 0.51488,0.0688 0.39238,-0.26803 0.56621,-0.21299 0.56621,-0.21299 0.11271,0.28522 0.041,0.49821 0.0206,0.5498 0.13282,0.14446 0.2114,0.32994 0.2114,0.55668 0,0.79719 -0.48101,0.97235 -0.94139,1.02394 0.0751,0.0653 0.1397,0.18891 0.1397,0.38471 0,0.27834 -0.003,0.50165 -0.003,0.57044 0,0.055 0.0376,0.12038 0.1397,0.0998 a 2.0743333,2.0743333 0 0 0 1.40864,-1.96877 C 4.1202636,0.92766 3.1965136,3e-5 2.0606536,3e-5"
       clip-rule="evenodd"
       id="path7"
       style="fill:#ffffff;fill-opacity:1;stroke-width:0.264583" />
  </g>
  <g
     id="social"
     inkscape:label="social"
     transform="translate(-2.3715722,-2.1154834)">
    <path
       fill="none"
       stroke="#aa3bff"
       stroke-linecap="round"
       stroke-linejoin="round"
       stroke-width="0.357188"
       d="m 6.4926524,4.6173039 a 1.10252,1.10252 0 1 0 -2.20504,0 1.10252,1.10252 0 0 0 2.20504,0"
       id="path8"
       style="fill:none;fill-opacity:1;stroke:#ffffff;stroke-opacity:1" />
    <path
       fill="none"
       stroke="#aa3bff"
       stroke-linecap="round"
       stroke-linejoin="round"
       stroke-width="0.357188"
       d="m 3.8468224,7.2631339 a 1.5433146,1.5433146 0 0 1 2.3151,-1.33694 m 1.01521,0.12541 0.13573,0.27385 c 0.0185,0.0381 0.068,0.0746 0.10954,0.0817 l 0.24606,0.041 c 0.15769,0.0265 0.19473,0.14182 0.0812,0.25533 l -0.1913,0.19314 a 0.16933333,0.16933333 0 0 0 -0.0402,0.1405 l 0.0548,0.23891 c 0.0434,0.18918 -0.0564,0.26221 -0.22225,0.16352 l -0.23072,-0.13759 a 0.1666875,0.1666875 0 0 0 -0.15267,0 l -0.23071,0.13759 c -0.1651,0.0987 -0.26538,0.0249 -0.22225,-0.16352 l 0.0548,-0.23891 a 0.16933333,0.16933333 0 0 0 -0.0402,-0.14076 l -0.19129,-0.19288 c -0.11272,-0.11377 -0.0765,-0.2286 0.081,-0.25506 l 0.24606,-0.0413 a 0.16933333,0.16933333 0 0 0 0.10901,-0.082 l 0.13573,-0.27358 c 0.0741,-0.14869 0.19447,-0.14869 0.26776,0"
       id="path9"
       style="fill:none;fill-opacity:1;stroke:#ffffff;stroke-opacity:1" />
  </g>
  <g
     id="cv"
     inkscape:label="cv"
     transform="translate(-0.8922307,-8.6271541)">
    <path
       fill="none"
       stroke="#aa3bff"
       stroke-linecap="round"
       stroke-linejoin="round"
       stroke-width="0.357188"
       d="m 5.8192307,12.232069 v -1.143 c 0,-0.373063 0,-0.560123 -0.059267,-0.709084 C 5.6649786,10.140273 5.4641599,9.9510958 5.2096307,9.861402 5.0511453,9.8058395 4.8527078,9.8058395 4.4560974,9.8058395 c -0.6940021,0 -1.0411354,0 -1.3184187,0.097631 -0.4455584,0.1563685 -0.7971896,0.4873625 -0.9633479,0.9069915 -0.1034521,0.26088 -0.1034521,0.58764 -0.1034521,1.241161 v 0.561446 c 0,0.676804 0,1.015471 0.1867958,1.250421 q 0.080963,0.101335 0.1886479,0.177535 c 0.2010834,0.141817 0.4736042,0.169334 0.9474729,0.174625"
       id="path5"
       style="stroke:#ffffff;stroke-opacity:1" />
    <path
       fill="none"
       stroke="#aa3bff"
       stroke-linecap="round"
       stroke-linejoin="round"
       stroke-width="0.357188"
       d="m 2.0708787,12.010877 a 0.73554166,0.73554166 0 0 1 0.7350125,-0.735013 c 0.1468437,0 0.3198812,0.02567 0.4624916,-0.01243 0.127,-0.03413 0.2259542,-0.133085 0.2598209,-0.25982 0.038365,-0.142875 0.0127,-0.315913 0.0127,-0.462757 A 0.73554166,0.73554166 0 0 1 4.2756516,9.8061041"
       id="path6"
       style="stroke:#ffffff;stroke-opacity:1" />
    <path
       d="m 4.5683594,12.642578 c -0.04997,1.1e-5 -0.1045216,0.0051 -0.1445313,0.01172 -0.04184,0.0069 -0.081938,0.01558 -0.1230469,0.0293 -0.077357,0.02581 -0.191109,0.08791 -0.2539062,0.142578 -0.029721,0.02588 -0.059264,0.05626 -0.085937,0.08984 -0.051745,0.06513 -0.1074214,0.177592 -0.1308594,0.253906 -0.016267,0.05296 -0.030006,0.110434 -0.037109,0.169922 -0.00913,0.07649 -0.0091,0.20481 0,0.28125 0.0065,0.05464 0.017546,0.105776 0.03125,0.15625 0.020079,0.07395 0.067721,0.194513 0.1132812,0.263672 0.023397,0.03551 0.050325,0.06854 0.078125,0.09766 0.0583,0.06106 0.1693193,0.130941 0.2480469,0.158203 0.050133,0.01736 0.1033844,0.02981 0.1601562,0.03711 0.076155,0.0098 0.2047634,0.01021 0.2851563,-0.0039 0.061467,-0.0108 0.1185641,-0.0297 0.171875,-0.05469 0.075372,-0.03534 0.1786229,-0.116206 0.2304687,-0.181641 0.040702,-0.05137 0.074667,-0.109961 0.1015625,-0.173828 0.042721,-0.101435 0.00602,-0.1807 -0.070312,-0.226563 -0.090773,-0.05452 -0.2032871,0.01911 -0.234375,0.09375 -0.012002,0.02883 -0.032019,0.04958 -0.050781,0.08008 -0.01274,0.02071 -0.040031,0.05472 -0.072266,0.08203 -0.032235,0.02731 -0.069949,0.05015 -0.091797,0.05859 -0.00751,0.0029 -0.018112,0.0037 -0.033203,0.0078 -0.025119,0.0069 -0.068151,0.0137 -0.1113281,0.01367 -0.042708,-2.5e-5 -0.086306,-0.0051 -0.1113281,-0.01172 v -0.002 c 0,0 -0.00195,0 -0.00195,0 0,0 -0.00195,0 -0.00195,0 0,0 -0.00195,0 -0.00195,0 -0.025646,-0.0072 -0.065484,-0.02685 -0.1015625,-0.04883 -0.036079,-0.02198 -0.069184,-0.0487 -0.083984,-0.06641 6.841e-4,8.25e-4 -0.00602,-0.0068 -0.00977,-0.01172 -0.015418,-0.02009 -0.036185,-0.05896 -0.052734,-0.09961 -0.016549,-0.04065 -0.029285,-0.08381 -0.035156,-0.113282 -0.00444,-0.02231 -0.00685,-0.0467 -0.00977,-0.07226 -0.00732,-0.06422 -0.00894,-0.184912 0,-0.246094 3.037e-4,-0.0021 0.0046,-0.02037 0.00586,-0.02734 0.00555,-0.03076 0.018331,-0.07372 0.033203,-0.115234 0.014872,-0.04152 0.034276,-0.08252 0.048828,-0.103516 0.00304,-0.0044 0.00671,-0.0096 0.00781,-0.01172 v -0.002 c 0.015125,-0.01955 0.04602,-0.04822 0.080078,-0.07226 0.034676,-0.02448 0.074311,-0.0453 0.097656,-0.05274 0.00623,-0.002 0.019467,-0.0039 0.037109,-0.0078 0.027928,-0.0062 0.071793,-0.0098 0.1152344,-0.0098 0.043442,3e-5 0.086665,0.0049 0.1113281,0.01172 l 0.00977,0.002 c 0.021487,0.008 0.055222,0.0248 0.083984,0.04687 0.032623,0.02504 0.061805,0.05661 0.074219,0.07617 0.00558,0.0088 0.01022,0.0169 0.011719,0.01953 0.031927,0.0564 0.094686,0.144475 0.1835938,0.140625 0.00291,-2.28e-4 0.00676,-7.91e-4 0.011719,-0.002 0.1114913,-0.02627 0.1838269,-0.145051 0.1289063,-0.253906 -0.023037,-0.04566 -0.049856,-0.08646 -0.080078,-0.123047 -0.053848,-0.06518 -0.1610657,-0.143154 -0.2382813,-0.175781 -0.047075,-0.01989 -0.097444,-0.0339 -0.1503906,-0.04297 -0.04092,-0.007 -0.09201,-0.01173 -0.1425781,-0.01172 z m 0.9609375,0.02344 c -0.1129181,0 -0.1891318,0.113711 -0.1484375,0.21875 l 0.484375,1.253906 c 0.018415,0.09312 0.1131848,0.176301 0.2089843,0.177734 0.098134,0.0015 0.1869285,-0.07172 0.2246094,-0.167968 0.1658627,-0.434055 0.1668455,-0.435445 0.3066406,-0.794922 0.046598,-0.119826 0.089436,-0.230251 0.1230469,-0.314453 0.020167,-0.05052 0.037722,-0.09101 0.048828,-0.117188 9.256e-4,-0.0022 0.012098,-0.028 0.011719,-0.02734 0.059793,-0.10357 -0.00746,-0.208311 -0.1171875,-0.226562 -0.1163415,-0.01934 -0.1787979,0.08348 -0.2109375,0.169922 l -0.3144531,0.847656 c -0.016028,0.04311 -0.039348,0.105793 -0.060547,0.164062 -0.020522,-0.05849 -0.043326,-0.121386 -0.058594,-0.164062 L 5.7265625,12.84375 v -0.002 c -0.019691,-0.09071 -0.093437,-0.159326 -0.1855469,-0.173828 l -0.00586,-0.002 z"
       id="text3"
       style="font-size:2.1089px;font-family:Arial;-inkscape-font-specification:Arial;fill:#ffffff;stroke:none;stroke-width:0.176;stroke-dasharray:none;stroke-opacity:1"
       aria-label="CV"
       sodipodi:nodetypes="csscccssssccscsscccsccccscccccscccccscccszzcccccsccczzszcc"
       inkscape:path-effect="#path-effect11"
       inkscape:original-d="m 5.1081797,13.753674 c 0.048397,0.02908 0.068473,0.07208 0.040142,0.139348 -0.024808,0.05891 -0.05533,0.111232 -0.091565,0.156967 -0.045289,0.05716 -0.1395014,0.132004 -0.2055053,0.162953 -0.047887,0.02245 -0.099399,0.03852 -0.154538,0.04821 -0.071913,0.01263 -0.1912894,0.01233 -0.2636986,0.003 -0.052858,-0.0068 -0.1017266,-0.01802 -0.1466063,-0.03356 -0.068874,-0.02385 -0.1700015,-0.08898 -0.2203458,-0.14171 -0.025218,-0.02641 -0.048276,-0.05548 -0.069174,-0.0872 -0.040153,-0.06095 -0.086034,-0.171176 -0.1051632,-0.241634 -0.013032,-0.048 -0.02255,-0.09723 -0.028553,-0.147696 -0.00863,-0.07251 -0.00877,-0.191493 -1.167e-4,-0.263998 0.00657,-0.05502 0.017413,-0.107133 0.03253,-0.156352 0.021425,-0.06976 0.075446,-0.176558 0.1208213,-0.233672 0.023274,-0.0293 0.048799,-0.05603 0.076573,-0.08021 0.055019,-0.0479 0.1602976,-0.105235 0.2295095,-0.12833 0.036884,-0.01231 0.074825,-0.02168 0.1138224,-0.02811 0.072023,-0.01187 0.1915252,-0.01217 0.2634399,2.16e-4 0.047876,0.0082 0.09279,0.02124 0.1347407,0.03896 0.067163,0.02838 0.1637625,0.100378 0.2101874,0.156569 0.027428,0.0332 0.051308,0.06995 0.071638,0.110241 0.03288,0.06517 -0.00969,0.136743 -0.080807,0.153499 -0.037509,0.0088 -0.083809,-0.04199 -0.1197415,-0.105462 -0.00404,-0.0071 -0.00819,-0.01406 -0.012451,-0.02077 -0.038939,-0.06135 -0.1363324,-0.135775 -0.2062128,-0.155626 -7.634e-4,-2.17e-4 -0.00153,-4.32e-4 -0.00229,-6.44e-4 -0.0702,-0.01949 -0.1910242,-0.01885 -0.2621947,-0.003 -0.014382,0.0032 -0.02838,0.007 -0.041993,0.01131 -0.069349,0.0221 -0.1687801,0.0922 -0.212699,0.150245 -0.00361,0.0048 -0.00713,0.0096 -0.010543,0.01455 -0.041493,0.05987 -0.078661,0.174311 -0.091633,0.246146 -0.00177,0.0098 -0.00338,0.01966 -0.00482,0.02955 -0.010553,0.07223 -0.010595,0.19131 -0.00233,0.263864 0.00305,0.02674 0.00707,0.05263 0.012056,0.07768 0.014258,0.07157 0.056259,0.184416 0.1005943,0.242193 0.0035,0.0046 0.00708,0.009 0.010736,0.01341 0.046654,0.05582 0.1509556,0.11842 0.2210576,0.138232 0.00155,4.37e-4 0.0031,8.66e-4 0.00465,0.0013 0.07031,0.01911 0.1913991,0.01969 0.2616302,3.6e-4 0.013619,-0.0037 0.026904,-0.0081 0.039854,-0.01313 0.067885,-0.02623 0.161196,-0.104882 0.1993118,-0.166834 0.011751,-0.0191 0.036625,-0.04942 0.053663,-0.09034 0.017038,-0.04091 0.087627,-0.0896 0.1360234,-0.06053 z m 0.8256204,0.369397 -0.4893017,-1.262882 c -0.023009,-0.05939 0.020808,-0.123356 0.084497,-0.123356 0.064847,0.01021 0.1162841,0.06006 0.1285141,0.124561 l 0.3032072,0.847547 c 0.02461,0.06879 0.064898,0.180213 0.087269,0.249763 0.021529,0.06693 0.05247,0.06484 0.07538,-0.0045 0.022161,-0.0671 0.063194,-0.176188 0.088658,-0.24467 L 6.5275869,12.86083 c 0.027719,-0.07455 0.067495,-0.134903 0.1330872,-0.123997 0.065593,0.01091 0.1019722,0.06551 0.068675,0.123186 -0.033298,0.05767 -0.4946041,1.263222 -0.4946041,1.263222 -0.029091,0.0743 -0.09488,0.124127 -0.1577864,0.123186 -0.062906,-9.41e-4 -0.1323317,-0.06132 -0.1431585,-0.123356 z" />
  </g>
</svg>
