<?xml version="1.0" encoding="UTF-8" standalone="no"?>
<!-- Created with Inkscape (http://www.inkscape.org/) -->

<svg
   viewBox="0 0 5 5"
   version="1.1"
   id="svg1"
   inkscape:version="1.4.3 (0d15f75, 2025-12-25)"
   sodipodi:docname="cv-old.svg"
   xmlns:inkscape="http://www.inkscape.org/namespaces/inkscape"
   xmlns:sodipodi="http://sodipodi.sourceforge.net/DTD/sodipodi-0.dtd"
   xmlns="http://www.w3.org/2000/svg"
   xmlns:svg="http://www.w3.org/2000/svg">
  <sodipodi:namedview
     id="namedview1"
     inkscape:showpageshadow="2"
     inkscape:pageopacity="0.0"
     inkscape:pagecheckerboard="0"
     inkscape:deskcolor="#d1d1d1"
     inkscape:document-units="mm"
     inkscape:zoom="66.935128"
     inkscape:cx="-0.34361629"
     inkscape:cy="3.7797791"
     inkscape:window-width="2560"
     inkscape:window-height="1476"
     inkscape:window-x="-12"
     inkscape:window-y="-12"
     inkscape:window-maximized="1"
     inkscape:current-layer="svg1"
     pagecolor="#505050"
     bordercolor="#eeeeee"
     borderopacity="1" />
  <defs
     id="defs1">
    <inkscape:path-effect
       effect="offset"
       id="path-effect11"
       is_visible="true"
       lpeversion="1.3"
       linejoin_type="miter"
       unit="mm"
       offset="0.07"
       miter_limit="4"
       attempt_force_join="false"
       update_on_knot_move="true" />
  </defs>
  <path
     id="text3"
     transform="translate(-1.8518277,-9.5106993)"
     d="m 4.5683594,12.642578 c -0.04997,1.1e-5 -0.1045216,0.0051 -0.1445313,0.01172 -0.04184,0.0069 -0.081938,0.01558 -0.1230469,0.0293 -0.077357,0.02581 -0.191109,0.08791 -0.2539062,0.142578 -0.029721,0.02588 -0.059264,0.05626 -0.085937,0.08984 -0.051745,0.06513 -0.1074214,0.177592 -0.1308594,0.253906 -0.016267,0.05296 -0.030006,0.110434 -0.037109,0.169922 -0.00913,0.07649 -0.0091,0.20481 0,0.28125 0.0065,0.05464 0.017546,0.105776 0.03125,0.15625 0.020079,0.07395 0.067721,0.194513 0.1132812,0.263672 0.023397,0.03551 0.050325,0.06854 0.078125,0.09766 0.0583,0.06106 0.1693193,0.130941 0.2480469,0.158203 0.050133,0.01736 0.1033844,0.02981 0.1601562,0.03711 0.076155,0.0098 0.2047634,0.01021 0.2851563,-0.0039 0.061467,-0.0108 0.1185641,-0.0297 0.171875,-0.05469 0.075372,-0.03534 0.1786229,-0.116206 0.2304687,-0.181641 0.040702,-0.05137 0.074667,-0.109961 0.1015625,-0.173828 0.042721,-0.101435 0.00602,-0.1807 -0.070312,-0.226563 -0.090773,-0.05452 -0.2032871,0.01911 -0.234375,0.09375 -0.012002,0.02883 -0.032019,0.04958 -0.050781,0.08008 -0.01274,0.02071 -0.040031,0.05472 -0.072266,0.08203 -0.032235,0.02731 -0.069949,0.05015 -0.091797,0.05859 -0.00751,0.0029 -0.018112,0.0037 -0.033203,0.0078 -0.025119,0.0069 -0.068151,0.0137 -0.1113281,0.01367 -0.042708,-2.5e-5 -0.086306,-0.0051 -0.1113281,-0.01172 v -0.002 c 0,0 -0.00195,0 -0.00195,0 0,0 -0.00195,0 -0.00195,0 0,0 -0.00195,0 -0.00195,0 -0.025646,-0.0072 -0.065484,-0.02685 -0.1015625,-0.04883 -0.036079,-0.02198 -0.069184,-0.0487 -0.083984,-0.06641 6.841e-4,8.25e-4 -0.00602,-0.0068 -0.00977,-0.01172 -0.015418,-0.02009 -0.036185,-0.05896 -0.052734,-0.09961 -0.016549,-0.04065 -0.029285,-0.08381 -0.035156,-0.113282 -0.00444,-0.02231 -0.00685,-0.0467 -0.00977,-0.07226 -0.00732,-0.06422 -0.00894,-0.184912 0,-0.246094 3.037e-4,-0.0021 0.0046,-0.02037 0.00586,-0.02734 0.00555,-0.03076 0.018331,-0.07372 0.033203,-0.115234 0.014872,-0.04152 0.034276,-0.08252 0.048828,-0.103516 0.00304,-0.0044 0.00671,-0.0096 0.00781,-0.01172 v -0.002 c 0.015125,-0.01955 0.04602,-0.04822 0.080078,-0.07226 0.034676,-0.02448 0.074311,-0.0453 0.097656,-0.05274 0.00623,-0.002 0.019467,-0.0039 0.037109,-0.0078 0.027928,-0.0062 0.071793,-0.0098 0.1152344,-0.0098 0.043442,3e-5 0.086665,0.0049 0.1113281,0.01172 l 0.00977,0.002 c 0.021487,0.008 0.055222,0.0248 0.083984,0.04687 0.032623,0.02504 0.061805,0.05661 0.074219,0.07617 0.00558,0.0088 0.01022,0.0169 0.011719,0.01953 0.031927,0.0564 0.094686,0.144475 0.1835938,0.140625 0.00291,-2.28e-4 0.00676,-7.91e-4 0.011719,-0.002 0.1114913,-0.02627 0.1838269,-0.145051 0.1289063,-0.253906 -0.023037,-0.04566 -0.049856,-0.08646 -0.080078,-0.123047 -0.053848,-0.06518 -0.1610657,-0.143154 -0.2382813,-0.175781 -0.047075,-0.01989 -0.097444,-0.0339 -0.1503906,-0.04297 -0.04092,-0.007 -0.09201,-0.01173 -0.1425781,-0.01172 z m 0.9609375,0.02344 c -0.1129181,0 -0.1891318,0.113711 -0.1484375,0.21875 l 0.484375,1.253906 c 0.018415,0.09312 0.1131848,0.176301 0.2089843,0.177734 0.098134,0.0015 0.1869285,-0.07172 0.2246094,-0.167968 0.1658627,-0.434055 0.1668455,-0.435445 0.3066406,-0.794922 0.046598,-0.119826 0.089436,-0.230251 0.1230469,-0.314453 0.020167,-0.05052 0.037722,-0.09101 0.048828,-0.117188 9.256e-4,-0.0022 0.012098,-0.028 0.011719,-0.02734 0.059793,-0.10357 -0.00746,-0.208311 -0.1171875,-0.226562 -0.1163415,-0.01934 -0.1787979,0.08348 -0.2109375,0.169922 l -0.3144531,0.847656 c -0.016028,0.04311 -0.039348,0.105793 -0.060547,0.164062 -0.020522,-0.05849 -0.043326,-0.121386 -0.058594,-0.164062 L 5.7265625,12.84375 v -0.002 C 5.7068715,12.75104 5.6331255,12.682424 5.5410156,12.667922 l -0.00586,-0.002 z M 4.2761647,9.6282488 c -0.5019942,5.415e-4 -0.9135245,0.4101152 -0.9140625,0.9121092 0,0.167654 0.017966,0.327288 -0.00586,0.416016 a 0.17861185,0.17861185 0 0 0 0,0.0019 c -0.017452,0.06531 -0.068868,0.115103 -0.1347656,0.132812 -0.088481,0.02364 -0.2483584,0.0059 -0.4160156,0.0059 -0.502244,3.62e-4 -0.9137017,0.411819 -0.9140625,0.914063 a 0.17859399,0.17859399 0 0 0 0.1796881,0.177737 0.17859399,0.17859399 0 0 0 0.1777343,-0.177735 c 2.223e-4,-0.309387 0.2472538,-0.556418 0.5566407,-0.55664 0.1260301,0 0.3130256,0.03498 0.5097656,-0.01758 0.1881021,-0.05055 0.3344845,-0.198558 0.3847656,-0.386719 0.052905,-0.197022 0.019531,-0.383731 0.019531,-0.509766 3.314e-4,-0.309227 0.2474135,-0.5543538 0.5566406,-0.5546873 A 0.17859399,0.17859399 0 0 0 4.4538987,9.8059832 0.17859399,0.17859399 0 0 0 4.2761647,9.6282488 Z m 0.179688,-0.00195 c -0.6940029,0 -1.0556272,-0.00376 -1.3769536,0.109375 C 2.5867409,9.908394 2.1946622,10.275507 2.0085866,10.745436 1.8862972,11.053819 1.8913991,11.398556 1.8913991,12.052077 v 0.560547 c 0,0.338402 -1.87e-5,0.596341 0.025391,0.8125 0.025409,0.216158 0.08176,0.398633 0.2011719,0.548828 a 0.17861185,0.17861185 0 0 0 0,0.002 c 0.064451,0.08067 0.1395752,0.150766 0.2246094,0.210937 0.2542991,0.179349 0.5688112,0.201672 1.0488281,0.207032 A 0.17859399,0.17859399 0 0 0 3.5730397,14.218092 0.17859399,0.17859399 0 0 0 3.3953053,14.036452 C 2.9275848,14.031229 2.6974698,14.000113 2.5496022,13.895827 2.4910564,13.854399 2.440758,13.80574 2.3972585,13.751296 2.3304768,13.666765 2.2934475,13.562412 2.2722584,13.382155 2.2509688,13.201042 2.248821,12.951026 2.2488209,12.612624 v -0.560547 c 0,-0.653521 0.00718,-0.962404 0.091797,-1.175781 0.146241,-0.369329 0.4565161,-0.664675 0.8554688,-0.804688 0.2332401,-0.082123 0.5657632,-0.087891 1.2597661,-0.087891 0.39661,0 0.580749,0.00671 0.695312,0.046875 0.20806,0.07332 0.368284,0.226538 0.443359,0.416016 0.04028,0.10124 0.04687,0.269515 0.04687,0.642578 v 1.142578 a 0.17859399,0.17859399 0 0 0 0.177735,0.179688 0.17859399,0.17859399 0 0 0 0.177734,-0.179688 v -1.142578 c 0,-0.373063 0.0079,-0.578709 -0.07031,-0.77539 -0.114885,-0.289947 -0.357205,-0.5150248 -0.658203,-0.6210941 -0.202408,-0.07096 -0.415891,-0.066406 -0.8125,-0.066406 z" />
</svg>
