<?xml version="1.0" encoding="UTF-8" standalone="no"?>
<!-- Created with Inkscape (http://www.inkscape.org/) -->

<svg
   viewBox="0 0 5 5"
   version="1.1"
   id="svg1"
   inkscape:version="1.4.3 (0d15f75, 2025-12-25)"
   sodipodi:docname="github.svg"
   xmlns:inkscape="http://www.inkscape.org/namespaces/inkscape"
   xmlns:sodipodi="http://sodipodi.sourceforge.net/DTD/sodipodi-0.dtd"
   xmlns="http://www.w3.org/2000/svg"
   xmlns:svg="http://www.w3.org/2000/svg">
  <sodipodi:namedview
     id="namedview1"
     inkscape:showpageshadow="2"
     inkscape:pageopacity="0.0"
     inkscape:pagecheckerboard="0"
     inkscape:deskcolor="#d1d1d1"
     inkscape:document-units="mm"
     inkscape:zoom="94.660566"
     inkscape:cx="4.8911603"
     inkscape:cy="0.27466559"
     inkscape:window-width="2560"
     inkscape:window-height="1476"
     inkscape:window-x="-12"
     inkscape:window-y="-12"
     inkscape:window-maximized="1"
     inkscape:current-layer="layer1"
     pagecolor="#505050"
     bordercolor="#eeeeee"
     borderopacity="1" />
  <defs
     id="defs1" />
  <g
     inkscape:label="Layer 1"
     inkscape:groupmode="layer"
     id="layer1">
    <path
       d="m 2.5016654,0.10622291 c -1.3474106,0 -2.43635936,1.09708559 -2.43635936,2.45451349 A 2.4532637,2.4532637 0 0 0 1.7312704,4.8888337 c 0.1210942,0.024718 0.1652199,-0.052629 0.1652199,-0.1176763 0,-0.057005 -0.00355,-0.2518981 -0.00355,-0.4549872 C 1.2154701,4.4623017 1.0743532,4.0235999 1.0743532,4.0235999 0.96519222,3.7388471 0.80399351,3.6659351 0.80399351,3.6659351 0.58181604,3.5157353 0.81995963,3.5157353 0.81995963,3.5157353 1.0662282,3.5317014 1.1954592,3.7676334 1.1954592,3.7676334 1.4129414,4.1412525 1.7640306,4.0358051 1.9051593,3.9707106 1.9251465,3.8120665 1.9896023,3.7025507 2.0584814,3.6415247 1.517762,3.5845197 0.94919062,3.3733529 0.94919062,2.4305357 c 0,-0.2681599 0.0969794,-0.4875227 0.25033698,-0.658372 -0.024363,-0.061026 -0.109161,-0.3129123 0.024127,-0.6502351 0,0 0.2055963,-0.065047 0.6696428,0.2518981 a 2.3468722,2.3468722 0 0 1 0.6089361,-0.081368 c 0.2055846,0 0.4155568,0.028739 0.6089361,0.081368 0.4640583,-0.3169926 0.6696429,-0.2518981 0.6696429,-0.2518981 0.1332994,0.3373228 0.04849,0.5892209 0.024363,0.6502351 0.157083,0.1708493 0.2500176,0.3902121 0.2500176,0.658372 0,0.9428172 -0.5688788,1.1499747 -1.1133591,1.210989 0.088819,0.077229 0.1652198,0.2234193 0.1652198,0.4549872 0,0.3291859 -0.00355,0.5932893 -0.00355,0.6746455 0,0.065047 0.044469,0.1423705 0.1652198,0.1180311 A 2.4532637,2.4532637 0 0 0 4.9346897,2.5607719 C 4.9382377,1.203344 3.845741,0.10625839 2.5023869,0.10625839"
       clip-rule="evenodd"
       id="path7"
       style="stroke-width:1.18268" />
  </g>
</svg>
