<?xml version="1.0" encoding="UTF-8" standalone="no"?>
<!-- Created with Inkscape (http://www.inkscape.org/) -->

<svg
   viewBox="0 0 210 210"
   version="1.1"
   id="svg1"
   inkscape:version="1.4.3 (0d15f75, 2025-12-25)"
   sodipodi:docname="itch.svg"
   xmlns:inkscape="http://www.inkscape.org/namespaces/inkscape"
   xmlns:sodipodi="http://sodipodi.sourceforge.net/DTD/sodipodi-0.dtd"
   xmlns="http://www.w3.org/2000/svg"
   xmlns:svg="http://www.w3.org/2000/svg">
  <sodipodi:namedview
     id="namedview1"
     inkscape:showpageshadow="0"
     inkscape:pageopacity="0"
     inkscape:pagecheckerboard="0"
     inkscape:deskcolor="#505050"
     inkscape:document-units="mm"
     inkscape:zoom="2.0917228"
     inkscape:cx="31.552938"
     inkscape:cy="52.588229"
     inkscape:window-width="2560"
     inkscape:window-height="1476"
     inkscape:window-x="-12"
     inkscape:window-y="-12"
     inkscape:window-maximized="1"
     inkscape:current-layer="svg1"
 />
  <defs
     id="defs1" />
  <path
     id="path2"
     d="M 104.99933,4.6045149 A 100.39564,100.39564 0 0 0 4.6045128,105.00068 100.39564,100.39564 0 0 0 104.99933,205.39549 100.39564,100.39564 0 0 0 205.39549,105.00068 100.39564,100.39564 0 0 0 104.99933,4.6045149 Z m -0.45348,41.6206791 c 19.71058,-0.0029 32.93574,0.112611 52.01266,0.782409 6.13664,3.643243 18.2287,17.536752 18.34331,21.180563 v 6.030511 c 0,7.645433 -7.145,14.362227 -13.63261,14.362227 -7.78938,0 -14.28101,-6.455904 -14.28101,-14.11857 0,7.662666 -6.26848,14.11857 -14.05901,14.11857 -7.78997,0 -13.85732,-6.455904 -13.85732,-14.11857 0,7.662666 -6.66453,14.11857 -14.45563,14.11857 h -0.14077 c -7.790539,0 -14.455638,-6.455904 -14.455638,-14.11857 0,7.662666 -6.066211,14.11857 -13.857316,14.11857 -7.790534,0 -14.059009,-6.455904 -14.059009,-14.11857 -5.69e-4,7.662666 -6.491042,14.11857 -14.281009,14.11857 -6.487614,0 -13.632609,-6.71793 -13.632609,-14.362227 V 68.188166 C 34.304568,64.545085 46.395155,50.652728 52.533201,47.007603 57.964311,46.534521 84.83635,46.226926 104.54585,46.225194 Z M 89.92237,84.978841 c 0.736894,1.297051 1.651839,2.485664 2.716775,3.53032 3.056977,2.990107 7.163492,4.662068 11.439695,4.65791 0.15656,0 0.31218,-0.008 0.46701,-0.01218 h 0.004 c 0.15481,0.006 0.30946,0.01218 0.4643,0.01218 4.2763,0.0041 8.38415,-1.668928 11.44104,-4.659264 1.06494,-1.044635 1.97854,-2.231915 2.71543,-3.528966 0.74488,1.298493 1.66749,2.485814 2.74114,3.528966 2.94073,2.874794 6.97212,4.659264 11.41533,4.659264 4.27589,0.0041 8.38367,-1.669984 11.4397,-4.660617 1.0655,-1.043131 1.87453,-2.159114 2.6166,-3.458577 l 0.004,0.0027 c 0.74149,1.302332 1.77351,2.416419 2.84131,3.461283 3.05733,2.988679 7.16426,4.660715 11.4397,4.656556 0.5362,0 1.09243,-0.148379 1.54316,-0.303217 0.62624,6.521465 0.89125,12.754381 0.98411,17.299651 l 0.001,0.0257 c 0.0114,2.30822 0.0216,4.2057 0.0338,6.84135 -0.12041,13.68288 1.35475,44.34871 -6.03321,51.88405 -11.44868,2.66948 -32.51471,3.88363 -53.64922,3.89174 h -0.004 c -21.135098,-0.007 -42.201898,-1.22226 -53.650569,-3.89174 -7.387961,-7.53477 -5.912722,-38.20117 -6.033219,-51.88405 0.01138,-2.63622 0.02165,-4.53372 0.03384,-6.84135 l 0.0014,-0.0257 c 0.09347,-4.54416 0.357871,-10.776852 0.984104,-17.298298 0.450732,0.154859 1.008887,0.303218 1.544514,0.303218 4.27545,0.0038 8.38102,-1.667849 11.438344,-4.656557 1.067799,-1.044835 2.100394,-2.160852 2.841311,-3.462636 l 0.0041,-0.0014 c 0.741486,1.299483 1.551101,2.414876 2.616606,3.458575 3.056144,2.990904 7.163535,4.664776 11.439696,4.660617 4.443778,0 8.474602,-1.782554 11.415331,-4.65791 1.073652,-1.043151 1.996262,-2.230501 2.741142,-3.528965 z M 78.172687,100.17221 c -2.199095,0 -10.990549,0.002 -17.116905,17.20896 l -6.582801,23.60495 c -4.87675,17.56238 1.561149,17.99132 9.591965,18.0076 11.909156,-0.44328 18.504396,-9.09307 18.504396,-17.74093 6.591998,1.08042 14.282491,1.62167 21.973798,1.62167 h 0.004 c 7.69077,-5.7e-4 15.38123,-0.54125 21.9738,-1.62167 0,8.64786 6.59467,17.29765 18.5044,17.74093 8.03081,-0.0155 14.46871,-0.44579 9.59196,-18.0076 l -6.58145,-23.60631 c -6.1269,-17.20796 -14.91882,-17.2076 -17.1169,-17.2076 l 0.001,0.005 h -0.008 c -4.65252,0.009 -8.78634,-3.4e-4 -13.9074,5.58922 -4.03088,-0.42265 -8.24269,-0.63298 -12.45764,-0.62674 h -0.004 c -4.21495,-0.006 -8.425972,0.20409 -12.456284,0.62674 -5.121054,-5.589 -9.253526,-5.57903 -13.906048,-5.58922 h -0.0081 z m 26.371813,13.52297 0.001,0.001 10e-4,-0.001 v 0.004 c 0,0 12.53742,11.51591 14.78998,15.60759 l -8.20312,-0.32894 v 7.15404 c 0,0.33498 -3.29152,0.19728 -6.58551,0.0447 h -0.004 c -3.29512,0.15258 -6.586864,0.29024 -6.586864,-0.0447 v -7.15404 l -8.203119,0.32894 c 2.252012,-4.09168 14.777783,-15.59539 14.789983,-15.60759 z" />
</svg>
