<?xml version="1.0" encoding="UTF-8" standalone="no"?>
<!-- Uploaded to: SVG Repo, www.svgrepo.com, Generator: SVG Repo Mixer Tools -->

<svg
   version="1.1"
   id="Layer_1"
   viewBox="0 0 32 32"
   xml:space="preserve"
   sodipodi:docname="gaming.svg"
   inkscape:version="1.4.3 (0d15f75, 2025-12-25)"
   xmlns:inkscape="http://www.inkscape.org/namespaces/inkscape"
   xmlns:sodipodi="http://sodipodi.sourceforge.net/DTD/sodipodi-0.dtd"
   xmlns="http://www.w3.org/2000/svg"
   xmlns:svg="http://www.w3.org/2000/svg"><defs
   id="defs5"><filter
     id="selectable_hidder_filter"
     x="0"
     y="0"
     style="color-interpolation-filters:sRGB;"
     inkscape:label="LPE boolean visibility"><feComposite
       id="boolops_hidder_primitive"
       result="composite1"
       operator="arithmetic"
       in2="SourceGraphic"
       in="BackgroundImage" /></filter><inkscape:path-effect
     effect="bool_op"
     operand-path=""
     id="path-effect6"
     is_visible="true"
     lpeversion="1"
     operation="diff"
     swap-operands="false"
     filltype-this="from-curve"
     filter=""
     filltype-operand="from-curve" /></defs><sodipodi:namedview
   id="namedview5"
   borderopacity="0.25"
   inkscape:showpageshadow="2"
   inkscape:pageopacity="0.0"
   inkscape:pagecheckerboard="0"
   inkscape:deskcolor="#d1d1d1"
   inkscape:zoom="32"
   inkscape:cx="13.109375"
   inkscape:cy="17.71875"
   inkscape:window-width="2560"
   inkscape:window-height="1476"
   inkscape:window-x="-12"
   inkscape:window-y="-12"
   inkscape:window-maximized="1"
   inkscape:current-layer="Layer_1"
   pagecolor="#000000"
   bordercolor="#000000" />
<path
   id="path5"
   d="m 15.99739,6.0927638 c -7.5506247,0 -14.2427436,2.4487188 -14.2427436,2.4487188 L 0.1261526,21.112688 c -0.36241026,2.814803 1.625892,5.391123 4.4406943,5.753533 2.081262,0.267966 5.284076,-0.74669 5.8037511,-4.856785 h 11.258367 c 0.568834,4.278663 3.904494,5.099341 5.806142,4.854394 2.814802,-0.36241 4.803104,-2.936339 4.440694,-5.751142 L 30.244916,8.5414826 c 0,0 -6.696902,-2.4487188 -14.247526,-2.4487188 z M 7.4292652,10.990201 h 2.4487189 v 2.448719 h 2.4487189 v 2.448719 H 9.8779841 v 2.448719 H 7.4292652 V 15.887639 H 4.9805464 V 13.43892 h 2.4487188 z m 15.9166728,0 c 0.676195,0 1.224359,0.548164 1.224359,1.22436 0,0.676195 -0.548164,1.224359 -1.224359,1.224359 -0.676196,0 -1.22436,-0.548164 -1.22436,-1.224359 0,-0.676196 0.548164,-1.22436 1.22436,-1.22436 z m -2.448719,2.448719 c 0.676195,0 1.224359,0.548164 1.224359,1.22436 0,0.676195 -0.548164,1.224359 -1.224359,1.224359 -0.676196,0 -1.22436,-0.548164 -1.22436,-1.224359 0,-0.676196 0.548164,-1.22436 1.22436,-1.22436 z m 4.897437,0 c 0.676196,0 1.22436,0.548164 1.22436,1.22436 0,0.676195 -0.548164,1.224359 -1.22436,1.224359 -0.676195,0 -1.224359,-0.548164 -1.224359,-1.224359 0,-0.676196 0.548164,-1.22436 1.224359,-1.22436 z m -2.448718,2.448719 c 0.676195,0 1.224359,0.548164 1.224359,1.224359 0,0.676196 -0.548164,1.22436 -1.224359,1.22436 -0.676196,0 -1.22436,-0.548164 -1.22436,-1.22436 0,-0.676195 0.548164,-1.224359 1.22436,-1.224359 z"
   sodipodi:nodetypes="sccscccccscccccccccccccssssssssssssssssssss"
   style="" />






</svg>
