<?xml version="1.0" encoding="UTF-8" standalone="no"?>
<!-- Created with Inkscape (http://www.inkscape.org/) -->

<svg
   viewBox="0 0 210 210"
   version="1.1"
   id="svg1"
   inkscape:version="1.4.3 (0d15f75, 2025-12-25)"
   sodipodi:docname="itch.svg"
   xmlns:inkscape="http://www.inkscape.org/namespaces/inkscape"
   xmlns:sodipodi="http://sodipodi.sourceforge.net/DTD/sodipodi-0.dtd"
   xmlns="http://www.w3.org/2000/svg"
   xmlns:svg="http://www.w3.org/2000/svg">
  <sodipodi:namedview
     id="namedview1"
     inkscape:showpageshadow="0"
     inkscape:pageopacity="0"
     inkscape:pagecheckerboard="0"
     inkscape:deskcolor="#505050"
     inkscape:document-units="mm"
     inkscape:zoom="1.4790714"
     inkscape:cx="-12.845898"
     inkscape:cy="337.37384"
     inkscape:window-width="2560"
     inkscape:window-height="1476"
     inkscape:window-x="-12"
     inkscape:window-y="-12"
     inkscape:window-maximized="1"
     inkscape:current-layer="layer1"
     pagecolor="#505050"
     bordercolor="#eeeeee"
     borderopacity="1" />
  <defs
     id="defs1" />
  <g
     inkscape:label="Layer 1"
     inkscape:groupmode="layer"
     id="layer1">
    <path
       d="M 29.955461,14.80872 C 21.0995,20.067043 3.6514729,40.111513 3.4859996,45.368194 v 8.701248 c 0,11.029636 10.3097754,20.723806 19.6704824,20.723806 11.239816,0 20.604657,-9.3152 20.605478,-20.37134 0,11.05614 9.043805,20.37134 20.284441,20.37134 11.241458,0 19.994834,-9.3152 19.994834,-20.37134 0,11.05614 9.616394,20.37134 20.857025,20.37134 h 0.20348 c 11.24145,0 20.85785,-9.3152 20.85785,-20.37134 0,11.05614 8.75419,20.37134 19.99401,20.37134 11.24063,0 20.28444,-9.3152 20.28444,-20.37134 0,11.05614 9.36651,20.37134 20.60548,20.37134 9.36071,0 19.67048,-9.69253 19.67048,-20.723806 V 45.368194 C 206.34864,40.110692 188.9005,20.065402 180.04618,14.80872 152.5209,13.842296 133.43872,13.675151 104.99915,13.679285 76.560397,13.681785 37.788677,14.126099 29.953761,14.80872 Z m 53.943462,54.789918 c -1.074756,1.8735 -2.40599,3.5877 -3.955118,5.09282 -4.243055,4.14873 -10.059073,6.72037 -16.470814,6.72037 -6.169893,0.006 -12.095973,-2.40824 -16.505556,-6.72369 -1.537372,-1.50591 -2.705712,-3.11608 -3.775572,-4.99105 l -0.0059,0.003 c -1.069038,1.87829 -2.558416,3.48764 -4.0991,4.99519 -4.411284,4.31228 -10.33669,6.72425 -16.505557,6.71873 -0.772834,0 -1.577098,-0.21343 -2.22744,-0.43687 -0.903565,9.40952 -1.284998,18.40202 -1.419863,24.958592 l -0.0017,0.0372 c -0.01759,3.32958 -0.03313,6.06754 -0.04955,9.87123 0.173859,19.74246 -1.955218,63.98843 8.704561,74.86004 16.518808,3.85168 46.915242,5.60583 77.410186,5.61659 h 0.006 c 30.49409,-0.0117 60.89053,-1.76491 77.40934,-5.61659 10.65978,-10.87243 8.53082,-55.1184 8.70456,-74.86086 -0.0176,-3.80287 -0.0331,-6.54083 -0.0496,-9.87126 l -0.002,-0.0372 c -0.13399,-6.558182 -0.51548,-15.549862 -1.41905,-24.959412 -0.65034,0.22341 -1.45378,0.4369 -2.22744,0.4369 -6.16886,0.006 -12.09427,-2.40649 -16.50555,-6.71873 -1.54069,-1.50759 -3.03006,-3.11611 -4.09992,-4.99519 l -0.006,-0.003 c -1.07071,1.87494 -2.2382,3.48596 -3.77557,4.99105 -4.40941,4.31506 -10.33522,6.72882 -16.50473,6.72287 -6.41092,0 -12.22776,-2.57331 -16.47082,-6.72123 -1.54913,-1.50512 -2.88036,-3.21928 -3.95512,-5.09282 -1.06323,1.87146 -2.38215,3.58556 -3.9187,5.09282 -4.41067,4.31463 -10.33713,6.728 -16.50723,6.72205 -0.2234,0 -0.44681,-0.009 -0.67019,-0.0176 h -0.006 c -0.22341,0.006 -0.44682,0.0176 -0.67271,0.0176 -6.169951,0.006 -12.096413,-2.4069 -16.507198,-6.7212 -1.536551,-1.50729 -2.855471,-3.22139 -3.918705,-5.09285 z m -16.950728,21.91862 -0.0016,0.009 h 0.01173 c 6.712929,0.0147 12.676214,0 20.065168,8.06413 5.815169,-0.60982 11.891829,-0.91432 17.973407,-0.9052 h 0.006 c 6.08158,-0.009 12.15824,0.29538 17.97423,0.9052 7.38896,-8.06495 13.35224,-8.0509 20.06517,-8.06413 h 0.0117 l -0.002,-0.009 c 3.17152,0 15.85852,0 24.69877,24.828652 l 9.49557,34.06116 c 7.03646,25.3392 -2.25309,25.95894 -13.84042,25.98128 -17.18404,-0.63959 -26.69864,-13.1189 -26.69864,-25.59654 -9.51214,1.55889 -20.60879,2.33833 -31.70548,2.33915 h -0.006 c -11.097471,0 -22.194124,-0.78026 -31.705441,-2.33915 0,12.47764 -9.515451,24.95695 -26.698674,25.59654 -11.587327,-0.0235 -20.876058,-0.64126 -13.8396,-25.98128 L 42.25015,116.34676 C 51.090426,91.518078 63.7774,91.518078 66.948924,91.518078 Z m 38.049345,19.512432 v 0.006 c -0.0176,0.0176 -18.090075,16.6148 -21.33941,22.51851 l 11.835567,-0.47411 v 10.32135 c 0,0.48323 4.749443,0.28645 9.503843,0.0663 h 0.006 c 4.75276,0.22019 9.50302,0.41703 9.50302,-0.0663 v -10.32135 l 11.83554,0.47411 c -3.25013,-5.90371 -21.33941,-22.51851 -21.33941,-22.51851 v -0.006 l -0.002,0.002 z"
       id="path1"
 />
  </g>
</svg>
