<?xml version="1.0" encoding="UTF-8" standalone="no"?>
<!-- Created with Inkscape (http://www.inkscape.org/) -->

<svg
   viewBox="0 0 5 5"
   version="1.1"
   id="svg1"
   inkscape:version="1.4.3 (0d15f75, 2025-12-25)"
   sodipodi:docname="mail.svg"
   xmlns:inkscape="http://www.inkscape.org/namespaces/inkscape"
   xmlns:sodipodi="http://sodipodi.sourceforge.net/DTD/sodipodi-0.dtd"
   xmlns="http://www.w3.org/2000/svg"
   xmlns:svg="http://www.w3.org/2000/svg">
  <sodipodi:namedview
     id="namedview1"
     inkscape:showpageshadow="2"
     inkscape:pageopacity="0.0"
     inkscape:pagecheckerboard="0"
     inkscape:deskcolor="#d1d1d1"
     inkscape:document-units="mm"
     inkscape:zoom="128"
     inkscape:cx="2.03125"
     inkscape:cy="1.9296875"
     inkscape:window-width="2560"
     inkscape:window-height="1476"
     inkscape:window-x="-12"
     inkscape:window-y="-12"
     inkscape:window-maximized="1"
     inkscape:current-layer="layer1"

 />
  <defs
     id="defs1">
    <inkscape:path-effect
       effect="mirror_symmetry"
       start_point="2.5,0"
       end_point="2.5,5"
       center_point="2.5,2.5"
       id="path-effect1"
       is_visible="true"
       lpeversion="1.2"
       lpesatellites=""
       mode="vertical"
       discard_orig_path="false"
       fuse_paths="false"
       oposite_fuse="false"
       split_items="false"
       split_open="false"
       link_styles="false" />
    <inkscape:path-effect
       effect="offset"
       id="path-effect11"
       is_visible="true"
       lpeversion="1.3"
       linejoin_type="miter"
       unit="mm"
       offset="0.07"
       miter_limit="4"
       attempt_force_join="false"
       update_on_knot_move="true" />
  </defs>
  <g
     inkscape:groupmode="layer"
     id="layer1"
     inkscape:label="Layer 1"
     transform="translate(0,0.00120342)">
    <path
       d="m 0.75390625,1.046875 c -0.29653186,0 -0.54101562,0.2444838 -0.54101562,0.5410156 v 1.8222657 c 0,0.2965318 0.24448382,0.5410156 0.54101562,0.5410156 H 4.2460937 c 0.2965319,0 0.5410157,-0.2444838 0.5410157,-0.5410156 V 1.5878906 c 0,-0.2965318 -0.2444838,-0.5410156 -0.5410157,-0.5410156 z m 0,0.3769531 H 4.2460937 c 0.082531,0 0.1305157,0.067635 0.1445313,0.1445313 L 2.5,2.4882813 0.609375,1.5683594 C 0.62339059,1.4914632 0.67137553,1.4238281 0.75390625,1.4238281 Z M 0.58984375,1.9785156 2.5,2.9082031 4.4101562,1.9785156 v 1.4316407 c 0,0.093684 -0.070379,0.1621093 -0.1640625,0.1621093 H 0.75390625 c -0.0936836,0 -0.1640625,-0.068426 -0.1640625,-0.1621093 z"
       id="path1" />
  </g>
</svg>
