<?xml version="1.0" encoding="UTF-8" standalone="no"?>
<!-- Uploaded to: SVG Repo, www.svgrepo.com, Generator: SVG Repo Mixer Tools -->

<svg
   viewBox="0 0 16 16"
   fill="currentColor"
   version="1.1"
   id="svg1"
   sodipodi:docname="music.svg"
   inkscape:version="1.4.3 (0d15f75, 2025-12-25)"
   xmlns:inkscape="http://www.inkscape.org/namespaces/inkscape"
   xmlns:sodipodi="http://sodipodi.sourceforge.net/DTD/sodipodi-0.dtd"
   xmlns="http://www.w3.org/2000/svg"
   xmlns:svg="http://www.w3.org/2000/svg">
  <defs
     id="defs1">
    <inkscape:path-effect
       effect="fillet_chamfer"
       id="path-effect1"
       is_visible="true"
       lpeversion="1"
       nodesatellites_param="F,0,0,1,0,0.5,0,1 @ F,0,0,1,0,0.5,0,1 @ F,0,0,1,0,0.5,0,1 @ F,0,0,1,0,0.5,0,1 @ F,0,0,1,0,0.5,0,1 @ F,0,0,1,0,0.5,0,1 @ F,0,0,1,0,0.5,0,1 @ F,0,0,1,0,0.5,0,1 @ F,0,0,1,0,0.5,0,1 @ F,0,0,1,0,0.5,0,1 @ F,0,0,1,0,0.5,0,1 @ F,0,0,1,0,0.5,0,1 @ F,0,0,1,0,0.5,0,1 @ F,0,0,1,0,0.5,0,1"
       radius="25"
       unit="px"
       method="auto"
       mode="F"
       chamfer_steps="1"
       flexible="false"
       use_knot_distance="true"
       apply_no_radius="true"
       apply_with_radius="true"
       only_selected="false"
       hide_knots="false" />
  </defs>
  <sodipodi:namedview
     id="namedview1"
     pagecolor="#ffffff"
     bordercolor="#000000"
     borderopacity="0.25"
     inkscape:showpageshadow="2"
     inkscape:pageopacity="0.0"
     inkscape:pagecheckerboard="0"
     inkscape:deskcolor="#d1d1d1"
     inkscape:zoom="8.3014336"
     inkscape:cx="0.18069168"
     inkscape:cy="44.811537"
     inkscape:window-width="2560"
     inkscape:window-height="1476"
     inkscape:window-x="-12"
     inkscape:window-y="-12"
     inkscape:window-maximized="1"
     inkscape:current-layer="svg1" />
  <path
     d="M 14.5,1 H 4.5 A 0.5,0.5 135 0 0 4,1.5 v 7 A 0.5,0.5 135 0 1 3.5,9 C 3.2238531,9 2.7743252,8.9956718 2.5022645,9.0410991 1.2442186,9.2511609 0.25122393,10.244101 0.04111621,11.502158 c -0.04544629,0.272118 -0.04544447,0.723517 -1.777e-5,0.995578 0.21006358,1.258072 1.20302876,2.251041 2.46105966,2.461147 0.2721177,0.04545 0.7235167,0.04544 0.9955774,1.8e-5 C 4.7557814,14.748839 5.7487761,13.755899 5.9588838,12.497842 6.0043301,12.225724 6,11.776142 6,11.5 v -6 A 0.5,0.5 135 0 1 6.5,5 h 6 A 0.5,0.5 45 0 1 13,5.5 v 3 A 0.5,0.5 135 0 1 12.5,9 c -0.276147,0 -0.725675,-0.00433 -0.997736,0.041097 -1.258076,0.2100574 -2.2510478,1.2029999 -2.4611492,2.4610609 -0.045445,0.272118 -0.045443,0.723517 -1.77e-5,0.995578 0.2100574,1.258076 1.2029999,2.251048 2.4610609,2.461149 0.272118,0.04544 0.723517,0.04544 0.995578,1.8e-5 1.258076,-0.210057 2.251048,-1.203 2.461149,-2.461061 C 15.00433,12.225724 15,11.776142 15,11.5 V 1.5 A 0.5,0.5 45 0 0 14.5,1 Z"
     id="path1"
     inkscape:path-effect="#path-effect1"
     inkscape:original-d="M 15,1 H 4 V 9 H 3 c -1.65685,0 -3,1.3431 -3,3 0,1.6569 1.34315,3 3,3 1.65685,0 3,-1.3431 3,-3 V 5 h 7 v 4 h -1 c -1.6569,0 -3,1.3431 -3,3 0,1.6569 1.3431,3 3,3 1.6569,0 3,-1.3431 3,-3 z"
      />
</svg>
