<?xml version="1.0" encoding="UTF-8" standalone="no"?>
<!-- Uploaded to: SVG Repo, www.svgrepo.com, Generator: SVG Repo Mixer Tools -->

<svg
   version="1.1"
   id="_x32_"
   viewBox="0 0 512 512"
   xml:space="preserve"
   sodipodi:docname="programmer.svg"
   inkscape:version="1.4.3 (0d15f75, 2025-12-25)"
   xmlns:inkscape="http://www.inkscape.org/namespaces/inkscape"
   xmlns:sodipodi="http://sodipodi.sourceforge.net/DTD/sodipodi-0.dtd"
   xmlns="http://www.w3.org/2000/svg"
   xmlns:svg="http://www.w3.org/2000/svg"><defs
   id="defs4" /><sodipodi:namedview
   id="namedview4"
   borderopacity="0.25"
   inkscape:showpageshadow="2"
   inkscape:pageopacity="0.0"
   inkscape:pagecheckerboard="0"
   inkscape:deskcolor="#d1d1d1"
   inkscape:zoom="2.0753584"
   inkscape:cx="304.28479"
   inkscape:cy="336.32745"
   inkscape:window-width="2560"
   inkscape:window-height="1476"
   inkscape:window-x="-12"
   inkscape:window-y="-12"
   inkscape:window-maximized="1"
   inkscape:current-layer="_x32_"
   pagecolor="#ffffff"
   bordercolor="#000000" />
<path
   id="path4"
   class="st0"
   d="m 281.375,158.224 h -16.08 c -0.237,0 -0.449,0.147 -0.522,0.372 L 228.26,264.473 c -0.056,0.164 -0.026,0.354 0.074,0.492 0.109,0.147 0.277,0.242 0.454,0.242 h 16.08 c 0.238,0 0.45,-0.156 0.523,-0.38 l 36.508,-105.859 c 0.061,-0.172 0.03,-0.363 -0.069,-0.51 -0.109,-0.147 -0.277,-0.234 -0.455,-0.234 z m 24.695,9.303 c -0.091,-0.06 -0.195,-0.096 -0.312,-0.096 -0.09,0 -0.177,0.018 -0.259,0.07 -0.177,0.086 -0.294,0.285 -0.294,0.492 v 16.824 c 0,0.182 0.091,0.355 0.242,0.458 l 39.94,27.258 -39.94,27.267 c -0.151,0.104 -0.242,0.285 -0.242,0.466 v 16.815 c 0,0.207 0.117,0.397 0.294,0.493 0.082,0.043 0.169,0.069 0.259,0.069 0.117,0 0.22,-0.034 0.312,-0.104 l 57.52,-39.266 c 0.164,-0.095 0.25,-0.268 0.25,-0.458 v -10.556 c 0,-0.19 -0.086,-0.355 -0.25,-0.467 z m -101.666,-0.096 c -0.117,0 -0.225,0.036 -0.31,0.096 l -57.525,39.266 c -0.152,0.112 -0.242,0.277 -0.242,0.467 v 10.556 c 0,0.189 0.09,0.363 0.242,0.458 l 57.525,39.266 c 0.086,0.069 0.194,0.104 0.31,0.104 0.087,0 0.177,-0.026 0.255,-0.069 0.181,-0.096 0.298,-0.286 0.298,-0.493 v -16.824 c 0,-0.172 -0.09,-0.354 -0.242,-0.458 l -39.94,-27.267 39.94,-27.258 c 0.152,-0.112 0.242,-0.277 0.242,-0.467 v -16.815 c 0,-0.207 -0.117,-0.406 -0.298,-0.492 -0.078,-0.052 -0.169,-0.07 -0.255,-0.07 z M 510.168,392.022 464.574,334.696 V 93.611 c 0,-11.662 -9.458,-21.12 -21.12,-21.12 H 68.546 c -11.662,0 -21.115,9.458 -21.115,21.12 V 334.696 L 1.837,392.022 C 0.648,393.517 0,395.367 0,397.287 v 25.373 c 0,9.311 7.542,16.849 16.849,16.849 h 478.302 c 9.31,0 16.849,-7.538 16.849,-16.849 v -25.373 c 0,-1.92 -0.64,-3.77 -1.832,-5.265 z M 77.226,102.291 H 434.774 V 304.897 H 77.226 Z M 304.121,419.47 h -96.242 v -25.478 h 96.242 z"
 />
</svg>
