<?xml version="1.0" encoding="UTF-8" standalone="no"?>
<!-- Uploaded to: SVG Repo, www.svgrepo.com, Generator: SVG Repo Mixer Tools -->

<svg
   viewBox="0 0 16 16"
   version="1.1"
   id="svg1"
   sodipodi:docname="star.svg"
   inkscape:version="1.4.3 (0d15f75, 2025-12-25)"
   xmlns:inkscape="http://www.inkscape.org/namespaces/inkscape"
   xmlns:sodipodi="http://sodipodi.sourceforge.net/DTD/sodipodi-0.dtd"
   xmlns="http://www.w3.org/2000/svg"
   xmlns:svg="http://www.w3.org/2000/svg">
  <defs
     id="defs1">
    <inkscape:path-effect
       effect="fillet_chamfer"
       id="path-effect1"
       is_visible="true"
       lpeversion="1"
       nodesatellites_param="F,0,0,1,0,1,0,1 @ F,0,0,1,0,1,0,1 @ F,0,0,1,0,1,0,1 @ F,0,0,1,0,1,0,1 @ F,0,0,1,0,1,0,1 @ F,0,0,1,0,1,0,1 @ F,0,0,1,0,1,0,1 @ F,0,0,1,0,1,0,1 @ F,0,0,1,0,1,0,1 @ F,0,0,1,0,1,0,1 @ F,0,0,1,0,1,0,1 @ F,0,0,1,0,1,0,1 @ F,0,0,1,0,1,0,1 @ F,0,0,1,0,1,0,1 @ F,0,0,1,0,1,0,1"
       radius="50"
       unit="px"
       method="auto"
       mode="F"
       chamfer_steps="1"
       flexible="false"
       use_knot_distance="true"
       apply_no_radius="true"
       apply_with_radius="true"
       only_selected="false"
       hide_knots="false" />
  </defs>
  <sodipodi:namedview
     id="namedview1"
     borderopacity="1"
     inkscape:showpageshadow="0"
     inkscape:pageopacity="0"
     inkscape:pagecheckerboard="0"
     inkscape:deskcolor="#505050"
     inkscape:zoom="33.205734"
     inkscape:cx="8.7183737"
     inkscape:cy="15.05764"
     inkscape:window-width="2560"
     inkscape:window-height="1476"
     inkscape:window-x="-12"
     inkscape:window-y="-12"
     inkscape:window-maximized="1"
     inkscape:current-layer="svg1"
     pagecolor="#505050"
     bordercolor="#eeeeee" />
  <path
     d="M 8.00001,0 A 1.337164,1.337164 143.20897 0 0 6.7173682,0.95922552 L 5.8908564,3.7642284 A 1.2963378,1.2963378 144.06467 0 1 4.6086607,4.6935887 L 1.7001079,4.6066852 A 1.3340227,1.3340227 144.85572 0 0 0.39153633,5.5278763 1.3420317,1.3420317 71.308792 0 0 0.90548081,7.0470274 L 3.3070389,8.7048441 a 1.3038389,1.3038389 72.104636 0 1 0.4876477,1.5102039 l -0.970643,2.727145 a 1.3369458,1.3369458 72.796097 0 0 0.4736974,1.5299 l 1.8e-5,1.4e-5 a 1.3418997,1.3418997 179.30665 0 0 1.6035605,-0.01941 l 2.3041504,-1.760846 a 1.3085532,1.3085532 179.99989 0 1 1.5891013,-3e-6 l 2.3041768,1.760852 a 1.3418886,1.3418886 0.6928985 0 0 1.603556,0.01939 1.3369519,1.3369519 107.20328 0 0 0.47368,-1.529903 l -0.970658,-2.727166 a 1.303832,1.303832 107.89537 0 1 0.487647,-1.510201 l 2.401564,-1.6578117 a 1.3419862,1.3419862 108.69033 0 0 0.513916,-1.519142 l -6e-6,-1.66e-5 a 1.3340626,1.3340626 35.143314 0 0 -1.308601,-0.921179 l -2.908487,0.086909 A 1.2963345,1.2963345 35.935258 0 1 10.109163,3.7642284 L 9.2826518,0.95922554 A 1.3371639,1.3371639 36.791032 0 0 8.00001,0 Z"
     id="path1"
     sodipodi:nodetypes="cccccccccccccccc" />
</svg>
