<?xml version="1.0" encoding="UTF-8" standalone="no"?>
<!-- Created with Inkscape (http://www.inkscape.org/) -->

<svg
   viewBox="0 0 5 5"
   version="1.1"
   id="svg1"
   inkscape:version="1.4.3 (0d15f75, 2025-12-25)"
   sodipodi:docname="cv.svg"
   xmlns:inkscape="http://www.inkscape.org/namespaces/inkscape"
   xmlns:sodipodi="http://sodipodi.sourceforge.net/DTD/sodipodi-0.dtd"
   xmlns="http://www.w3.org/2000/svg"
   xmlns:svg="http://www.w3.org/2000/svg">
  <sodipodi:namedview
     id="namedview1"
     inkscape:showpageshadow="2"
     inkscape:pageopacity="0.0"
     inkscape:pagecheckerboard="0"
     inkscape:deskcolor="#d1d1d1"
     inkscape:document-units="mm"
     inkscape:zoom="66.935128"
     inkscape:cx="-0.34361629"
     inkscape:cy="3.7797791"
     inkscape:window-width="2560"
     inkscape:window-height="1476"
     inkscape:window-x="-12"
     inkscape:window-y="-12"
     inkscape:window-maximized="1"
     inkscape:current-layer="svg1"

 />
  <defs
     id="defs1">
    <inkscape:path-effect
       effect="offset"
       id="path-effect11"
       is_visible="true"
       lpeversion="1.3"
       linejoin_type="miter"
       unit="mm"
       offset="0.07"
       miter_limit="4"
       attempt_force_join="false"
       update_on_knot_move="true" />
  </defs>
  <path
     id="path1"
     d="M 2.546875,0.08971831 A 2.4650393,2.4650393 0 0 0 0.08190588,2.5546875 2.4650393,2.4650393 0 0 0 2.546875,5.0196567 2.4650393,2.4650393 0 0 0 5.0118441,2.5546875 2.4650393,2.4650393 0 0 0 2.546875,0.08971831 Z M 2.58502,0.91181318 c 0.2671003,0 0.4108726,-0.003067 0.5471863,0.044722 0.2027101,0.0714335 0.3659031,0.22301412 0.4432736,0.41828182 0.052671,0.1324568 0.047353,0.2709516 0.047353,0.5221946 V 2.6664924 A 0.12027592,0.12027592 0 0 1 3.5031357,2.7875047 0.12027592,0.12027592 0 0 1 3.3834387,2.6664924 V 1.8970116 c 0,-0.251243 -0.00444,-0.3645696 -0.031568,-0.4327507 C 3.3013102,1.336655 3.1934055,1.2334691 3.0532854,1.184091 2.9761318,1.1570415 2.8521212,1.1525225 2.5850202,1.1525225 c -0.036281,0 -0.070483,-6.9e-5 -0.1039128,0 a 0.12027592,0.12027592 0 0 1 -0.0171,0.00132 c -0.2082521,2.246e-4 -0.374652,0.1653079 -0.3748752,0.3735599 0,0.08488 0.022476,0.2106203 -0.013154,0.3433068 -0.033862,0.1267189 -0.132445,0.2263963 -0.2591242,0.2604396 -0.1324966,0.035397 -0.2584306,0.011838 -0.3433068,0.011838 -0.2076037,1.49e-4 -0.3735259,0.164946 -0.3748753,0.3722446 -5.6e-6,0.00984 0,0.020167 0,0.030253 v 0.377506 c 1e-7,0.2279002 0.00145,0.3962762 0.015784,0.5182486 0.01427,0.1213959 0.039208,0.1916732 0.084183,0.2486015 0.029295,0.036666 0.063169,0.069436 0.1025974,0.097336 0.099583,0.070232 0.2545563,0.091188 0.5695473,0.094705 A 0.12027592,0.12027592 0 0 1 1.9904812,4.0042051 0.12027592,0.12027592 0 0 1 1.8681535,4.1225868 C 1.5448813,4.118977 1.3330699,4.1039439 1.1618096,3.9831595 1.1045425,3.9426368 1.0539493,3.8954295 1.0105442,3.8411015 a 0.12028795,0.12028795 0 0 0 0,-0.00132 C 0.93012502,3.7386358 0.89217489,3.6157461 0.87506294,3.4701723 0.85795052,3.3245978 0.85796337,3.1508862 0.85796337,2.922986 V 2.54548 c 0,-0.00933 2.24e-6,-0.01322 0,-0.022361 a 0.12027592,0.12027592 0 0 1 0,-0.00526 c 2.22e-6,-0.00309 -4.827e-5,-0.00613 0,-0.00921 C 0.8578368,2.0976847 0.85740188,1.8659448 0.93688447,1.6655097 1.062199,1.3490313 1.3262483,1.101793 1.6576972,0.98547288 1.8506214,0.91754669 2.0885637,0.91349128 2.4640078,0.91312853 a 0.12027592,0.12027592 0 0 1 0.00395,0 c 0.044348,-3.814e-5 0.068015,-0.001315 0.1170663,-0.001315 z M 1.9668049,1.1669914 C 1.8722635,1.1757128 1.7990038,1.1897477 1.7366183,1.2117134 1.4679396,1.3060065 1.2589817,1.5049099 1.1604943,1.7536383 1.1332056,1.8224515 1.1177624,1.90655 1.1091956,2.0232854 1.211389,1.9477301 1.3375859,1.902371 1.473548,1.902273 c 0.1129104,0 0.2205815,0.011975 0.2801699,-0.00395 0.044379,-0.011926 0.079006,-0.04546 0.090759,-0.089444 a 0.12028795,0.12028795 0 0 0 0,-0.00132 C 1.8605229,1.747804 1.8484269,1.6402974 1.8484269,1.5273891 1.848571,1.3930185 1.8927679,1.2683 1.9668086,1.1669827 Z m 0.6945057,1.7757249 c 0.034056,-6.8e-6 0.068463,0.00318 0.096021,0.00789 0.035657,0.00611 0.069579,0.015543 0.101282,0.028938 0.052002,0.021973 0.1242085,0.074486 0.160473,0.1183817 0.020353,0.02464 0.038415,0.052117 0.053929,0.082867 0.036987,0.07331 -0.011728,0.1533039 -0.086813,0.1709957 -0.00334,8.143e-4 -0.00593,0.00116 -0.00789,0.00132 -0.059876,0.00259 -0.1021416,-0.056722 -0.1236431,-0.094705 -0.00101,-0.00177 -0.00413,-0.00723 -0.00789,-0.013154 -0.00836,-0.013173 -0.028013,-0.034435 -0.049983,-0.051299 -0.01937,-0.014863 -0.042089,-0.026181 -0.05656,-0.031568 l -0.00658,-0.00132 c -0.01661,-0.00459 -0.045719,-0.00787 -0.074975,-0.00789 -0.029256,0 -0.058797,0.0024 -0.077606,0.00658 -0.011881,0.00263 -0.020796,0.00391 -0.024992,0.00526 -0.015722,0.00501 -0.042415,0.019028 -0.065768,0.035515 -0.022937,0.01619 -0.043743,0.035502 -0.053929,0.048668 v 0.00132 c -7.409e-4,0.00143 -0.00321,0.00493 -0.00526,0.00789 -0.0098,0.01414 -0.022868,0.041752 -0.032884,0.069714 -0.010016,0.027958 -0.018623,0.05689 -0.022361,0.077606 -8.486e-4,0.00469 -0.00374,0.017001 -0.00395,0.018415 -0.00602,0.041204 -0.00493,0.1224847 0,0.1657343 0.00197,0.017214 0.00359,0.033643 0.00658,0.048668 0.00395,0.019848 0.012531,0.048914 0.023676,0.076291 0.011145,0.027376 0.025131,0.053553 0.035515,0.067083 0.00253,0.00331 0.00704,0.00845 0.00658,0.00789 0.00997,0.011927 0.032262,0.029919 0.05656,0.044722 0.024297,0.014803 0.051127,0.028035 0.068398,0.032884 h 0.00132 0.00132 0.00132 v 0.00263 c 0.016851,0.00446 0.046213,0.00788 0.074975,0.00789 0.029078,2.03e-5 0.058058,-0.00456 0.074975,-0.00921 0.010163,-0.00276 0.017303,-0.00331 0.022361,-0.00526 0.014714,-0.00568 0.040112,-0.021068 0.061822,-0.039461 0.021709,-0.018392 0.040088,-0.041297 0.048668,-0.055245 0.012635,-0.020541 0.026116,-0.034514 0.034199,-0.053929 0.020936,-0.050267 0.09671,-0.099854 0.1578422,-0.063137 0.051407,0.030887 0.076124,0.084268 0.047353,0.1525807 -0.018113,0.043012 -0.040987,0.082471 -0.068398,0.1170664 -0.034916,0.044068 -0.1044515,0.098528 -0.1552115,0.1223277 -0.035903,0.01683 -0.074355,0.029556 -0.115751,0.03683 -0.054141,0.0095 -0.140754,0.00923 -0.1920413,0.00263 -0.038234,-0.00492 -0.074096,-0.0133 -0.1078589,-0.024992 C 2.4030959,4.0397747 2.3283288,3.9927125 2.2890661,3.951591 2.2703439,3.9319799 2.2522089,3.909738 2.236452,3.8858235 2.205769,3.8392476 2.173684,3.7580533 2.1601616,3.708251 2.1509316,3.674259 2.1434936,3.639821 2.1391156,3.6030228 c -0.00613,-0.051479 -0.00615,-0.1378977 0,-0.1894106 0.00478,-0.040063 0.014037,-0.078769 0.024992,-0.1144357 0.015785,-0.051394 0.05328,-0.1271332 0.088129,-0.1709956 0.017963,-0.022615 0.03786,-0.043077 0.057876,-0.060506 0.042291,-0.036817 0.1188988,-0.078639 0.1709957,-0.096021 0.027685,-0.00924 0.05469,-0.015083 0.082867,-0.01973 0.026945,-0.00446 0.063683,-0.00788 0.097336,-0.00789 z m 0.6510991,0.015784 0.00395,0.00132 c 0.062032,0.00977 0.1116974,0.055977 0.1249585,0.1170663 v 0.00263 l 0.2025641,0.5669165 c 0.010283,0.028741 0.02564,0.071099 0.039461,0.1104896 0.014277,-0.039242 0.029982,-0.081457 0.040776,-0.1104896 L 3.9358864,3.0755668 c 0.021645,-0.058215 0.063707,-0.1274603 0.142058,-0.1144356 0.073897,0.012291 0.1191893,0.082831 0.078921,0.1525808 2.553e-4,-4.445e-4 -0.00727,0.016933 -0.00789,0.018415 -0.00748,0.01763 -0.019302,0.044898 -0.032884,0.078921 C 4.093454,3.2677547 4.0646044,3.3421216 4.0332224,3.4228196 3.9390761,3.6649131 3.9384141,3.6658491 3.8267122,3.9581678 3.8013356,4.022987 3.7415361,4.0722982 3.6754468,4.071288 3.6109296,4.070323 3.5471059,4.0143037 3.5347042,3.951591 L 3.2084969,3.1071352 c -0.027406,-0.07074 0.023921,-0.1473194 0.099967,-0.1473194 z" />
</svg>
